# xmcd
# 
# Track frame offsets:
#     150
#     27032
#     35020
#     55067
#     84927
#     103827
#     122377
#     135655
# 
# Disc length: 2039
# 
# Revision: 0
# Processed by: cddbd v1.5.2PL0 Copyright (c) Steve Scherf et al.
# Submitted via: BonkEnc v1.0.8
# 
DISCID=5c07f508
DTITLE=Boston - Don't Look Back
DYEAR=1978
DGENRE=Rock
TTITLE0=Don't Look Back
TTITLE1=The Journey
TTITLE2=It's Easy
TTITLE3=A Man I'll Never Be
TTITLE4=Feelin' Satisfied
TTITLE5=Party
TTITLE6=Used to Bad News
TTITLE7=Don't Be Afraid
EXTD=
EXTT0=
EXTT1=
EXTT2=
EXTT3=
EXTT4=
EXTT5=
EXTT6=
EXTT7=
PLAYORDER=
